# xmcd
#
# Track frame offsets: 
#        150
#        23022
#        60186
#        101165
#        138101
#        168994
#        198819
#
# Disc length: 3105 seconds
#
# Revision: 0
# Processed by: cddbd v1.5.2PL0 Copyright (c) Steve Scherf et al.
# Submitted via: ExactAudioCopyFreeDBPlugin 1.0
#
DISCID=4c0c1f07
DTITLE=Etta James - Chicago Blues Festival 1986
DYEAR=1900
DGENRE=Blues
TTITLE0=MC intro: I just want to make love to you
TTITLE1=I'd rather go blind
TTITLE2=Something's got a hold on me
TTITLE3=Medley: At last, Trust in me, A sunday kind of love
TTITLE4=Baby, what you want me to do?
TTITLE5=Miss you
TTITLE6=Love and happiness
EXTD=
EXTT0=
EXTT1=
EXTT2=
EXTT3=
EXTT4=
EXTT5=
EXTT6=
PLAYORDER=
